<?xml version="1.0" encoding="utf-8"?>
<!-- Generator: Adobe Illustrator 15.0.0, SVG Export Plug-In . SVG Version: 6.00 Build 0)  -->
<!DOCTYPE svg PUBLIC "-//W3C//DTD SVG 1.1//EN" "http://www.w3.org/Graphics/SVG/1.1/DTD/svg11.dtd">
<svg version="1.1" id="Capa_1" xmlns="http://www.w3.org/2000/svg" xmlns:xlink="http://www.w3.org/1999/xlink" x="0px" y="0px"
	 width="288px" height="153px" viewBox="0 0 288 153" enable-background="new 0 0 288 153" xml:space="preserve">
<g>
	<defs>
		<rect id="SVGID_1_" width="288" height="153"/>
	</defs>
	<clipPath id="SVGID_2_">
		<use xlink:href="#SVGID_1_"  overflow="visible"/>
	</clipPath>
	<path clip-path="url(#SVGID_2_)" fill="#A3BD31" d="M53.957,62.416c-6.186,0-11.201-5.017-11.201-11.202
		c0-6.187,5.015-11.202,11.203-11.202c6.185,0,11.2,5.015,11.2,11.202C65.159,57.399,60.144,62.416,53.957,62.416 M62.553,36.346
		H45.136l-8.709,15.083l8.709,15.083h17.417l8.708-15.083L62.553,36.346z"/>
	<path clip-path="url(#SVGID_2_)" fill="#A3BD31" d="M83.447,78.968c-6.186,0-11.202-5.014-11.202-11.201
		c0-6.186,5.016-11.201,11.202-11.201c6.186,0,11.202,5.015,11.202,11.201C94.649,73.954,89.633,78.968,83.447,78.968
		 M92.042,52.899H74.625l-8.708,15.084l8.708,15.083h17.417l8.708-15.083L92.042,52.899z"/>
	<path clip-path="url(#SVGID_2_)" fill="#A3BD31" d="M53.53,96.208c-6.187,0-11.202-5.015-11.202-11.202
		c0-6.185,5.015-11.2,11.202-11.2c6.185,0,11.202,5.015,11.202,11.2C64.732,91.193,59.715,96.208,53.53,96.208 M62.125,70.14H44.708
		L36,85.223l8.708,15.083h17.417l8.708-15.083L62.125,70.14z"/>
	<path clip-path="url(#SVGID_2_)" fill="#A3BD31" d="M83.113,112.557c-6.186,0-11.201-5.016-11.201-11.203
		c0-6.184,5.015-11.199,11.201-11.199s11.201,5.016,11.201,11.199C94.314,107.541,89.299,112.557,83.113,112.557 M91.708,86.489
		H74.291l-8.708,15.082l8.708,15.083h17.417l8.707-15.083L91.708,86.489z"/>
	<path clip-path="url(#SVGID_2_)" fill="#00527D" d="M107.699,78.299c-2.178,0-3.699,1.603-3.987,4.068h7.522
		C111.316,79.818,109.918,78.299,107.699,78.299 M116.29,85.942h-12.66c-0.041,3.821,1.849,5.675,5.632,5.675
		c2.013,0,4.192-0.453,5.959-1.275l0.493,4.07c-2.178,0.863-4.767,1.313-7.316,1.313c-6.495,0-10.111-3.248-10.111-10.44
		c0-6.249,3.453-10.85,9.577-10.85c5.96,0,8.591,4.067,8.591,9.122C116.455,84.258,116.414,85.078,116.29,85.942"/>
	<path clip-path="url(#SVGID_2_)" fill="#00527D" d="M130.922,91.984v3.33h-12.166v-3.33c1.069-0.204,2.343-0.409,3.576-0.493
		V69.336c-0.987-0.163-2.384-0.329-3.576-0.41v-3.289c2.631-0.329,5.795-0.451,8.836-0.369v26.223
		C128.785,91.575,129.936,91.78,130.922,91.984"/>
	<path clip-path="url(#SVGID_2_)" fill="#00527D" d="M142.101,78.299c-2.179,0-3.699,1.603-3.987,4.068h7.523
		C145.718,79.818,144.321,78.299,142.101,78.299 M150.69,85.942h-12.66c-0.041,3.821,1.851,5.675,5.632,5.675
		c2.014,0,4.192-0.453,5.96-1.275l0.493,4.07c-2.179,0.863-4.767,1.313-7.316,1.313c-6.495,0-10.112-3.248-10.112-10.44
		c0-6.249,3.453-10.85,9.578-10.85c5.958,0,8.588,4.067,8.588,9.122C150.854,84.258,150.814,85.078,150.69,85.942"/>
	<path clip-path="url(#SVGID_2_)" fill="#00527D" d="M181.683,82.367c0-2.179-0.495-3.535-2.425-3.535
		c-2.301,0-4.687,2.714-4.687,6.7v5.959c1.027,0.082,2.098,0.207,3.001,0.454v3.371h-8.18V82.367c0-2.015-0.411-3.535-2.427-3.535
		c-2.423,0-4.684,2.876-4.684,6.7v5.959c0.987,0.082,2.096,0.207,3,0.454v3.371h-11.796v-3.332c1.067-0.204,2.342-0.411,3.575-0.493
		V78.913c-0.987-0.163-2.384-0.328-3.575-0.41v-3.289c2.588-0.327,5.795-0.451,8.508-0.37c0,0.945-0.083,2.509-0.245,3.699h0.04
		c1.233-2.506,3.7-4.108,6.74-4.108c3.617,0,5.138,2.137,5.632,4.108c0.944-2.012,3.205-4.108,6.657-4.108
		c3.947,0,6.125,2.178,6.125,6.822v10.234c1.192,0.082,2.343,0.289,3.33,0.493v3.332h-8.591V82.367z"/>
	<path clip-path="url(#SVGID_2_)" fill="#00527D" d="M201.824,78.299c-2.181,0-3.701,1.603-3.989,4.068h7.523
		C205.44,79.818,204.043,78.299,201.824,78.299 M210.413,85.942h-12.659c-0.041,3.821,1.85,5.675,5.632,5.675
		c2.014,0,4.192-0.453,5.959-1.275l0.492,4.07c-2.178,0.863-4.766,1.313-7.315,1.313c-6.492,0-10.11-3.248-10.11-10.44
		c0-6.249,3.451-10.85,9.577-10.85c5.959,0,8.589,4.067,8.589,9.122C210.577,84.258,210.537,85.078,210.413,85.942"/>
	<path clip-path="url(#SVGID_2_)" fill="#00527D" d="M229.279,82.243c0-2.138-0.575-3.411-2.508-3.411
		c-2.671,0-4.769,3.042-4.769,6.617v6.042c0.986,0.082,2.098,0.207,3.002,0.454v3.371h-11.796v-3.33
		c1.066-0.206,2.342-0.413,3.575-0.495V78.913c-0.987-0.163-2.384-0.328-3.575-0.41v-3.289c2.588-0.328,5.753-0.451,8.507-0.37
		c0,0.945-0.083,2.59-0.289,3.659l0.042,0.04c1.233-2.425,3.617-4.11,6.947-4.11c4.604,0,6.083,2.96,6.083,6.537v10.521
		c1.19,0.082,2.383,0.289,3.372,0.495v3.33h-8.592V82.243z"/>
	<path clip-path="url(#SVGID_2_)" fill="#00527D" d="M247.726,95.726c-4.521,0-5.919-1.644-5.919-6.412V78.955h-3.534v-4.069h3.493
		v-6.288l5.262-1.398v7.686H252v4.069h-4.973v8.961c0,2.631,0.616,3.37,2.425,3.37c0.863,0,1.81-0.122,2.548-0.328v4.234
		C250.686,95.522,249.166,95.726,247.726,95.726"/>
</g>
</svg>
